<?xml version="1.0" standalone="no"?>
<!DOCTYPE svg PUBLIC "-//W3C//DTD SVG 20010904//EN"
 "http://www.w3.org/TR/2001/REC-SVG-20010904/DTD/svg10.dtd">
<svg version="1.0" xmlns="http://www.w3.org/2000/svg"
 width="1024.000000pt" height="1024.000000pt" viewBox="0 0 1024.000000 1024.000000"
 preserveAspectRatio="xMidYMid meet">
<metadata>
Created by potrace 1.14, written by Peter Selinger 2001-2017
</metadata>
<g transform="translate(0.000000,1024.000000) scale(0.100000,-0.100000)"
fill="#000000" stroke="none">
<path d="M8658 9903 c-90 -38 -140 -139 -117 -235 17 -73 82 -138 137 -138 23
0 59 11 87 25 l48 26 25 -23 c38 -35 66 -63 81 -81 12 -15 -3 -34 -141 -171
-85 -85 -161 -168 -167 -184 l-13 -30 -44 41 c-41 38 -43 42 -29 61 24 33 45
86 45 112 0 63 -86 137 -170 147 -143 16 -260 -131 -213 -269 15 -45 76 -114
102 -115 9 0 27 -2 40 -5 15 -3 44 7 76 25 l53 30 76 -80 c42 -44 76 -88 76
-98 0 -10 -81 -97 -188 -202 -169 -165 -498 -480 -542 -519 -9 -8 -86 -80
-169 -160 -84 -80 -174 -165 -200 -190 -27 -25 -126 -119 -222 -210 -95 -91
-214 -203 -263 -250 -49 -47 -106 -101 -126 -120 -20 -19 -77 -73 -126 -120
-50 -47 -164 -155 -255 -241 -90 -86 -189 -180 -219 -208 -30 -29 -115 -110
-189 -179 -73 -70 -137 -128 -141 -130 -4 -2 -43 23 -87 55 -204 153 -383 249
-605 327 l-116 41 49 120 c27 66 54 129 59 140 5 11 19 45 31 75 11 30 27 69
34 85 8 17 64 152 125 300 124 300 226 544 245 590 8 17 29 68 48 115 45 112
205 497 222 535 7 17 90 217 185 445 191 460 196 477 150 558 -24 42 -69 72
-110 72 -36 0 -73 -26 -135 -96 -33 -37 -65 -72 -70 -78 -13 -13 -207 -228
-245 -269 -14 -16 -41 -46 -60 -66 -19 -21 -69 -75 -110 -121 -41 -46 -86 -95
-100 -110 -14 -15 -57 -62 -95 -105 -38 -42 -83 -91 -100 -109 -16 -18 -64
-70 -105 -116 -41 -45 -86 -95 -100 -110 -14 -15 -57 -63 -96 -107 -40 -43
-85 -93 -100 -109 -16 -17 -65 -71 -109 -119 -44 -49 -91 -100 -104 -114 -12
-14 -53 -59 -90 -100 -36 -40 -79 -88 -96 -106 -16 -17 -62 -68 -101 -111 -40
-44 -85 -94 -100 -111 -16 -16 -63 -68 -104 -114 -41 -45 -86 -94 -99 -108
-49 -54 -174 -192 -191 -211 -9 -11 -57 -63 -106 -116 -49 -53 -96 -105 -104
-114 -16 -19 -159 -176 -200 -220 -14 -15 -53 -58 -86 -96 -34 -38 -75 -83
-90 -99 -16 -17 -69 -75 -119 -130 -49 -55 -101 -111 -115 -126 -14 -14 -59
-64 -100 -110 -41 -46 -82 -90 -90 -99 -8 -9 -51 -56 -95 -104 -44 -49 -91
-101 -105 -116 -14 -15 -53 -58 -87 -96 -33 -38 -78 -87 -100 -110 -21 -22
-72 -78 -113 -124 -41 -46 -80 -88 -85 -94 -6 -6 -55 -60 -109 -121 -55 -60
-106 -117 -115 -126 -9 -9 -52 -56 -96 -105 -44 -49 -93 -103 -110 -120 -16
-18 -57 -62 -90 -99 -33 -37 -68 -77 -79 -89 -70 -78 -56 -222 26 -271 35 -20
58 -21 1093 -24 l150 -1 -60 -36 c-55 -34 -106 -59 -320 -159 -111 -52 -177
-68 -264 -63 -115 7 -214 55 -312 151 -56 54 -80 68 -120 69 -65 2 -116 -59
-104 -125 10 -51 -10 -65 -315 -224 -106 -55 -98 -51 -230 -124 -464 -259
-765 -577 -870 -919 -37 -123 -41 -142 -46 -285 -8 -230 41 -436 166 -700 71
-150 203 -366 307 -500 13 -16 27 -34 31 -40 16 -22 183 -223 216 -260 l35
-40 -38 -40 c-86 -90 -107 -188 -63 -288 49 -109 172 -162 295 -125 22 7 64
34 94 61 l53 49 29 -23 c16 -13 76 -63 133 -110 385 -322 771 -529 1105 -596
135 -26 380 -24 497 6 96 24 203 64 251 93 40 24 42 23 43 -12 1 -48 38 -118
74 -140 24 -16 44 -20 73 -16 43 5 64 25 225 205 41 46 80 89 85 95 6 6 100
112 210 236 110 124 202 227 205 230 3 3 39 43 80 89 113 127 120 134 123 130
2 -2 13 -20 25 -39 11 -19 73 -87 137 -150 63 -63 115 -118 115 -121 0 -4 -81
-89 -180 -189 -185 -187 -200 -209 -200 -285 0 -44 40 -107 82 -130 47 -27
109 -30 152 -10 37 18 398 380 388 389 -3 3 -1 6 5 6 12 0 227 215 1166 1164
392 396 1338 1348 2104 2115 766 768 1405 1414 1421 1436 104 147 146 281 144
460 -1 178 -63 350 -143 394 -53 30 -113 35 -165 12 -30 -14 -133 -111 -367
-347 -178 -181 -450 -456 -603 -611 -154 -155 -919 -923 -1701 -1707 l-1423
-1425 -27 14 c-16 8 -34 15 -41 15 -8 0 6 21 31 48 25 26 58 63 74 82 15 19
42 49 58 66 17 17 44 47 60 65 74 85 191 215 205 230 8 9 40 44 70 78 30 35
64 73 75 86 11 12 54 59 95 105 41 46 82 91 90 100 62 71 149 169 170 191 14
15 48 53 75 85 28 31 64 72 80 90 17 17 43 47 59 65 31 36 188 211 196 219 5
5 114 128 185 209 17 18 35 39 41 45 5 6 52 58 104 116 51 58 96 107 99 110 3
3 21 23 40 45 28 33 145 164 186 209 6 6 64 72 130 146 66 74 136 152 155 174
43 47 58 64 140 156 36 40 70 78 75 84 6 6 84 94 175 196 90 102 167 187 170
190 3 3 59 66 125 140 66 74 139 155 162 180 88 95 113 135 120 189 8 70 -17
134 -66 166 l-36 24 -685 6 c-377 3 -801 6 -943 7 -141 1 -256 6 -255 10 2 4
145 152 318 329 173 177 357 365 409 418 51 53 255 260 451 461 197 201 415
424 485 495 69 72 221 226 338 343 l212 212 70 -70 70 -70 -29 -51 c-39 -70
-32 -123 24 -173 132 -119 344 -27 341 149 -1 143 -123 228 -229 161 -23 -14
-44 -26 -48 -26 -3 0 -37 31 -75 69 l-70 70 23 20 c25 24 27 25 65 10 15 -6
51 -11 80 -10 70 0 105 24 241 160 l110 109 45 -46 c43 -44 45 -48 30 -67 -50
-65 -52 -131 -6 -186 76 -90 215 -91 300 -4 63 66 75 153 33 235 -45 88 -122
113 -206 66 -25 -14 -48 -26 -49 -26 -3 0 -59 55 -73 73 -12 14 -7 22 33 63
62 61 84 113 80 180 -2 29 -9 62 -15 74 -11 21 -3 32 112 146 67 68 129 137
136 155 14 33 10 106 -6 134 -16 30 -217 227 -246 242 -36 19 -106 19 -143 0
-16 -9 -83 -70 -150 -136 l-122 -120 -28 14 c-54 28 -182 6 -208 -35 -5 -8
-28 8 -70 50 l-63 63 26 41 c36 56 36 111 -1 159 -52 69 -156 95 -239 60z
m329 -4555 l113 -113 -1208 -1211 c-664 -665 -1454 -1461 -1757 -1768 -302
-308 -561 -570 -575 -583 -23 -22 -32 -24 -97 -21 -125 6 -128 26 -26 196 64
108 88 166 97 236 l7 50 1162 1163 c639 640 1385 1388 1657 1662 272 275 500
500 505 500 6 1 61 -50 122 -111z"/>
</g>
</svg>
